# AST/ASF file generated using VICON BodyLanguage
# -----------------------------------------------
:version 1.10
:name VICON
:units
  mass 1.0
  length 0.45
  angle deg
:documentation
   .ast/.asf automatically generated from VICON data using
   VICON BodyBuilder and BodyLanguage model FoxedUp or BRILLIANT.MOD
:root
   order TX TY TZ RX RY RZ
   axis XYZ
   position 0 0 0  
   orientation 0 0 0 
:bonedata
  begin
     id 1 
     name lhipjoint
     direction 0.624716 -0.669793 0.401383 
     length 2.38238 
     axis 0 0 0  XYZ
  end
  begin
     id 2 
     name lfemur
     direction 0.34202 -0.939693 0  
     length 6.4574  
     axis 0 0 20  XYZ
    dof rx ry rz
    limits (-160.0 20.0)
           (-70.0 70.0)
           (-60.0 70.0)
  end
  begin
     id 3 
     name ltibia
     direction 0.34202 -0.939693 0   
     length 7.68739   
     axis 0 0 20   XYZ
    dof rx
    limits (-10.0 170.0)
  end
  begin
     id 4 
     name lfoot
     direction 0.0681309 -0.187188 0.979959   
     length 2.46615   
     axis -90 7.62852e-016 20   XYZ
    dof rx rz
    limits (-45.0 90.0)
           (-70.0 20.0)
  end
  begin
     id 5 
     name ltoes
     direction 1.53566e-011 -4.21819e-011 1   
     length 1.2376   
     axis -90 7.62852e-016 20   XYZ
    dof rx
    limits (-90.0 20.0)
  end
  begin
     id 6 
     name rhipjoint
     direction -0.644473 -0.655875 0.393043   
     length 2.43293  
     axis 0 0 0  XYZ 
  end
  begin
     id 7 
     name rfemur
     direction -0.34202 -0.939693 0   
     length 6.7025   
     axis 0 0 -20   XYZ
    dof rx ry rz
    limits (-160.0 20.0)
           (-70.0 70.0)
           (-70.0 60.0)
  end
  begin
     id 8 
     name rtibia
     direction -0.34202 -0.939693 0   
     length 7.80547   
     axis 0 0 -20   XYZ
    dof rx
    limits (-10.0 170.0)
 end
 begin
     id 9 
     name rfoot
     direction -0.0756734 -0.207911 0.975216   
     length 2.40315  
     axis -90 -7.62852e-016 -20   XYZ
    dof rx rz
    limits (-45.0 90.0)
           (-20.0 70.0)
  end
  begin
     id 10 
     name rtoes
     direction -1.5353e-011 -4.21879e-011 1   
     length 1.20477   
     axis -90 -7.62852e-016 -20   XYZ
    dof rx
    limits (-90.0 20.0)
  end
  begin
     id 11 
     name lowerback
     direction 0.0160353 0.987463 -0.157037   
     length 2.18572   
     axis 0 0 0   XYZ
    dof rx ry rz
    limits (-20.0 45.0)
           (-30.0 30.0)
           (-30.0 30.0)
  end
  begin
     id 12 
     name upperback
     direction -0.00499661 0.999756 0.0215076   
     length 2.18016   
     axis 0 0 0   XYZ
    dof rx ry rz
    limits (-20.0 45.0)
           (-30.0 30.0)
           (-30.0 30.0)
  end
  begin
     id 13 
     name thorax
     direction -0.00921346 0.995333 0.0960619   
     length 2.24923   
     axis 0 0 0   XYZ
    dof rx ry rz
    limits (-20.0 45.0)
           (-30.0 30.0)
           (-30.0 30.0)
  end
  begin
     id 14 
     name lowerneck
     direction 0.0274184 0.991181 0.12965   
     length 1.70911   
     axis 0 0 0   XYZ
    dof rx ry rz
    limits (-20.0 45.0)
           (-30.0 30.0)
           (-30.0 30.0)
  end
  begin
     id 15 
     name upperneck
     direction 0.0015627 0.999959 -0.00893559   
     length 1.69312   
     axis 0 0 0   XYZ
    dof rx ry rz
    limits (-20.0 45.0)
           (-30.0 30.0)
           (-30.0 30.0)
  end
  begin
     id 16
     name head
     direction -0.00230242 0.999856 -0.0168327  
     length 1.80241  
     axis 0 0 0   XYZ
    dof rx ry rz
    limits (-20.0 45.0)
           (-30.0 30.0)
           (-30.0 30.0)
  end
  begin
     id 17 
     name lclavicle
     direction 0.955523 0.290741 -0.0494489  
     length 3.84275  
     axis 0 0 0   XYZ
    dof ry rz
    limits (-20.0 10.0)
           (0.0 20.0)
  end
  begin
     id 18 
     name lhumerus
     direction 1 -4.48967e-011 -3.18382e-028   
     length 5.17714   
     axis 180 -30 -90   XYZ
    dof rx ry rz
    limits (-60.0 90.0)
           (-90.0 90.0)
           (-90.0 90.0)
  end
  begin
     id 19
     name lradius
     direction 1 -4.48968e-011 -2.22911e-027   
     length 3.43679   
     axis 180 -30 -90   XYZ
    dof rx
    limits (-10.0 170.0)
  end
  begin
     id 20
     name lwrist
     direction 1 -4.48951e-011 -6.32245e-027   
     length 1.7184   
     axis 3.57107e-015 90 90   XYZ
    dof ry
    limits (-180.0 0.0)
 end
  begin
     id 21 
     name lhand
     direction 1 -4.48924e-011 -1.26431e-026   
     length 0.573117   
     axis 8.06912e-015 90 90   XYZ
    dof rx rz
    limits (-90.0 90.0)
           (-45.0 45.0)
  end
  begin
     id 22 
     name lfingers
     direction 1 -4.49001e-011 -2.52965e-026   
     length 0.462062   
     axis 1.61381e-014 90 90   XYZ
    dof rx
    limits (0.0 90.0)
  end
  begin
     id 23
     name lthumb
     direction 0.707107 -6.35008e-011 0.707107   
     length 0.663431   
     axis -90 45 -1.62303e-014   XYZ
    dof rx rz
    limits (-45.0 45.0)
           (-45.0 45.0)
  end
  begin
     id 24 
     name rclavicle
     direction -0.963917 0.256881 -0.0698287   
     length 3.73057  
     axis 0 0 0   XYZ 
    dof ry rz
    limits (-10.0 20.0)
           (-20.0 0.0)
  end
  begin
     id 25 
     name rhumerus
     direction -1 -4.48962e-011 -2.73982e-027  
     length 5.23908   
     axis 180 30 90   XYZ
    dof rx ry rz
    limits (-90.0 60.0)
           (-90.0 90.0)
           (-90.0 90.0)
  end
  begin
     id 26 
     name rradius
     direction -1 -4.48968e-011 -4.33218e-027   
     length 3.46485   
     axis 180 30 90   XYZ
    dof rx
    limits (-10.0 170.0)
  end
  begin
     id 27 
     name rwrist
     direction -1 -4.48989e-011 -6.32372e-027   
     length 1.73243   
     axis 3.57107e-015 -90 -90   XYZ
    dof ry
    limits (-180.0 0.0)
  end
  begin
     id 28
     name rhand
     direction -1 -4.48948e-011 -1.26448e-026   
     length 0.608752   
     axis 8.06912e-015 -90 -90   XYZ
    dof rx rz
    limits (-90.0 90.0)
           (-45.0 45.0)
  end
  begin
     id 29
     name rfingers
     direction -1 -4.48962e-011 -2.52913e-026   
     length 0.490792   
     axis 1.61381e-014 -90 -90   XYZ
    dof rx
    limits (0.0 90.0)
  end
  begin
     id 30
     name rthumb
     direction -0.707107 -6.34878e-011 0.707107   
     length 0.704682   
     axis -90 -45 1.62303e-014   XYZ
    dof rx rz
    limits (-45.0 45.0)
           (-45.0 45.0)
  end
:hierarchy
  begin
    root lhipjoint rhipjoint lowerback
    lhipjoint lfemur
    lfemur ltibia
    ltibia lfoot
    lfoot ltoes
    rhipjoint rfemur
    rfemur rtibia
    rtibia rfoot
    rfoot rtoes
    lowerback upperback
    upperback thorax
    thorax lowerneck lclavicle rclavicle
    lowerneck upperneck
    upperneck head
    lclavicle lhumerus
    lhumerus lradius
    lradius lwrist
    lwrist lhand lthumb
    lhand lfingers
    rclavicle rhumerus
    rhumerus rradius
    rradius rwrist
    rwrist rhand rthumb
    rhand rfingers
  end

#!OML:ASF G:\JayActor3\Patient Classification 1\Patient 1\Session 6\male.ASF
:FULLY-SPECIFIED
:DEGREES
1178
root -1.27761 16.5784 -4.55271 3.39705 -70.9797 0.377764
lowerback 4.45078 -1.86219 3.66325
upperback 7.59242 -2.71287 1.06394
thorax 5.28068 -1.27913 -0.952655
lowerneck 4.71977 3.79358 3.9122
upperneck -1.1935 5.13881 -5.89243
head -0.919994 2.63889 -2.65479
rclavicle 3.69739e-014 -1.43125e-014
rhumerus 57.1275 55.2847 -48.4368
rradius 78.4885
rwrist 37.7429
rhand -56.6134 13.3472
rfingers 7.12502
rthumb -28.9222 -14.4299
lclavicle 3.69739e-014 -1.43125e-014
lhumerus 68.286 -31.3096 14.7282
lradius 72.5446
lwrist 1.24179
lhand 6.59138 23.2035
lfingers 7.12502
lthumb 31.8867 50.4322
rfemur -16.9473 7.40429 13.5553
rtibia 34.8497
rfoot -21.4405 -19.2471
rtoes -3.37211
lfemur -4.61279 2.41347 -10.3104
ltibia 9.83377
lfoot -5.83646 18.7971
ltoes 2.829
1179
root -1.27913 16.5845 -4.54267 3.87616 -70.946 0.114594
lowerback 4.54296 -1.86028 3.6282
upperback 7.61996 -2.70587 1.01161
thorax 5.2569 -1.2766 -0.984496
lowerneck 5.00663 3.79704 3.82249
upperneck -1.79321 5.12564 -5.88854
head -1.16505 2.64061 -2.6599
rclavicle -4.55217e-014 1.59028e-014
rhumerus 57.173 55.254 -48.3904
rradius 78.5435
rwrist 37.6809
rhand -56.6159 13.3957
rfingers 7.12502
rthumb -28.9247 -14.381
lclavicle -4.55217e-014 1.59028e-014
lhumerus 68.3105 -31.2211 14.7425
lradius 72.6021
lwrist 1.19484
lhand 6.67535 23.2082
lfingers 7.12502
lthumb 31.9666 50.4208
rfemur -17.1024 7.33498 13.5843
rtibia 34.7052
rfoot -21.3691 -19.2318
rtoes -3.28894
lfemur -4.91033 2.32795 -10.2517
ltibia 9.93037
lfoot -5.84724 18.9001
ltoes 2.74744
1180
root -1.28059 16.5906 -4.53282 4.34173 -70.9045 -0.137204
lowerback 4.62958 -1.86046 3.59332
upperback 7.65339 -2.70242 0.958217
thorax 5.24241 -1.27565 -1.01788
lowerneck 5.29175 3.80148 3.73609
upperneck -2.37939 5.11382 -5.87729
head -1.40704 2.64266 -2.66405
rclavicle -5.96354e-014 1.90833e-014
rhumerus 57.228 55.2157 -48.3378
rradius 78.5933
rwrist 37.6177
rhand -56.5778 13.5292
rfingers 7.12502
rthumb -28.8882 -14.2537
lclavicle -5.96354e-014 1.90833e-014
lhumerus 68.334 -31.1226 14.7627
lradius 72.6507
lwrist 1.131
lhand 6.72489 23.2021
lfingers 7.12502
lthumb 32.0138 50.4052
rfemur -17.2559 7.26256 13.6122
rtibia 34.5653
rfoot -21.3009 -19.2244
rtoes -3.21205
lfemur -5.19538 2.23526 -10.1947
ltibia 10.0038
lfoot -5.84862 19.0037
ltoes 2.67213
1181
root -1.28194 16.5968 -4.52311 4.76754 -70.8574 -0.348958
lowerback 4.71561 -1.86132 3.54953
upperback 7.68952 -2.70014 0.901432
thorax 5.23127 -1.27561 -1.04992
lowerneck 5.56874 3.80593 3.65762
upperneck -2.94003 5.10269 -5.86231
head -1.6409 2.64451 -2.66858
rclavicle -1.46107e-014 -5.56597e-015
rhumerus 57.2749 55.1719 -48.3008
rradius 78.6326
rwrist 37.5586
rhand -56.5171 13.762
rfingers 7.12502
rthumb -28.8302 -14.0308
lclavicle -1.46107e-014 -5.56597e-015
lhumerus 68.3614 -31.02 14.7849
lradius 72.6888
lwrist 1.04711
lhand 6.72674 23.1902
lfingers 7.12502
lthumb 32.0155 50.3931
rfemur -17.4097 7.19088 13.6283
rtibia 34.4314
rfoot -21.2379 -19.225
rtoes -3.12681
lfemur -5.46694 2.24809 -10.1605
ltibia 10.0494
lfoot -5.82253 19.0001
ltoes 2.58948
1182
root -1.28328 16.603 -4.5136 5.17878 -70.8069 -0.548884
lowerback 4.80492 -1.86349 3.50306
upperback 7.72681 -2.69971 0.844975
thorax 5.21956 -1.2767 -1.08001
lowerneck 5.83627 3.81096 3.59051
upperneck -3.46664 5.09345 -5.84989
head -1.8633 2.64675 -2.67574
rclavicle 7.85199e-015 -1.86858e-014
rhumerus 57.3276 55.1273 -48.2593
rradius 78.6678
rwrist 37.4977
rhand -56.4337 14.1426
rfingers 7.12502
rthumb -28.7506 -13.6637
lclavicle 7.85199e-015 -1.86858e-014
lhumerus 68.3856 -30.9174 14.8111
lradius 72.7183
lwrist 0.950375
lhand 6.69106 23.1639
lfingers 7.12502
lthumb 31.9816 50.3735
rfemur -17.562 7.12649 13.6432
rtibia 34.302
rfoot -21.1817 -19.2368
rtoes -3.03692
lfemur -5.72296 2.25527 -10.1287
ltibia 10.0716
lfoot -5.78944 18.9976
ltoes 2.51713
1183
root -1.2848 16.6093 -4.50467 5.56028 -70.7605 -0.719668
lowerback 4.90139 -1.8617 3.44128
upperback 7.76185 -2.69387 0.788429
thorax 5.20222 -1.27603 -1.1014
lowerneck 6.09748 3.81345 3.53844
upperneck -3.95852 5.08243 -5.84155
head -2.07454 2.64756 -2.68652
rclavicle 2.38542e-015 4.37326e-015
rhumerus 57.3715 55.0829 -48.2234
rradius 78.7031
rwrist 37.4383
rhand -56.3497 14.5788
rfingers 7.12502
rthumb -28.6704 -13.2412
lclavicle 2.38542e-015 4.37326e-015
lhumerus 68.4147 -30.8201 14.8376
lradius 72.7372
lwrist 0.851734
lhand 6.63405 23.1128
lfingers 7.12502
lthumb 31.9273 50.3333
rfemur -17.7154 7.08375 13.6515
rtibia 34.1766
rfoot -21.1336 -19.2653
rtoes -2.93569
lfemur -5.96711 2.26463 -10.1048
ltibia 10.0773
lfoot -5.74605 18.9953
ltoes 2.43688
1184
root -1.28629 16.6156 -4.49581 5.9306 -70.7125 -0.876458
lowerback 5.00509 -1.85953 3.37728
upperback 7.79079 -2.68695 0.731826
thorax 5.17443 -1.27509 -1.12122
lowerneck 6.35626 3.81346 3.49618
upperneck -4.41979 5.06968 -5.83164
head -2.27674 2.64695 -2.69815
rclavicle -2.16675e-014 9.14409e-015
rhumerus 57.4059 55.0399 -48.1951
rradius 78.7395
rwrist 37.3778
rhand -56.273 15.0264
rfingers 7.12502
rthumb -28.5971 -12.806
lclavicle -2.16675e-014 9.14409e-015
lhumerus 68.45 -30.7304 14.8605
lradius 72.7495
lwrist 0.755852
lhand 6.57425 23.0598
lfingers 7.12502
lthumb 31.8703 50.2916
rfemur -17.8717 7.04535 13.656
rtibia 34.0531
rfoot -21.0863 -19.3012
rtoes -2.83397
lfemur -6.20991 2.27411 -10.085
ltibia 10.0759
lfoot -5.70219 18.9909
ltoes 2.38124
1185
root -1.28782 16.6219 -4.48708 6.32531 -70.6639 -1.05816
lowerback 5.11868 -1.85741 3.32102
upperback 7.81309 -2.67956 0.68015
thorax 5.13401 -1.27388 -1.13971
lowerneck 6.61489 3.8112 3.44465
upperneck -4.858 5.05447 -5.80658
head -2.4734 2.64451 -2.70276
rclavicle 1.81888e-014 -2.70347e-014
rhumerus 57.4369 55.0038 -48.1647
rradius 78.7828
rwrist 37.3114
rhand -56.2207 15.417
rfingers 7.12502
rthumb -28.5471 -12.4238
lclavicle 1.81888e-014 -2.70347e-014
lhumerus 68.4862 -30.6467 14.8831
lradius 72.7588
lwrist 0.679446
lhand 6.53826 23.0038
lfingers 7.12502
lthumb 31.8361 50.2425
rfemur -18.0287 7.01743 13.6711
rtibia 33.9303
rfoot -21.0401 -19.3472
rtoes -2.7417
lfemur -6.45402 2.28703 -10.0544
ltibia 10.075
lfoot -5.65911 18.9817
ltoes 2.32265
1186
root -1.28934 16.6281 -4.47832 6.7253 -70.6128 -1.24514
lowerback 5.23529 -1.85428 3.27088
upperback 7.83244 -2.67062 0.629
thorax 5.08865 -1.27164 -1.16091
lowerneck 6.88115 3.80293 3.38458
upperneck -5.28725 5.03197 -5.76194
head -2.67094 2.63778 -2.69939
rclavicle 2.28602e-015 -2.78299e-015
rhumerus 57.4494 54.9668 -48.1509
rradius 78.8313
rwrist 37.2456
rhand -56.188 15.701
rfingers 7.12502
rthumb -28.5158 -12.145
lclavicle 2.28602e-015 -2.78299e-015
lhumerus 68.5296 -30.567 14.9028
lradius 72.7625
lwrist 0.620059
lhand 6.52085 22.9551
lfingers 7.12502
lthumb 31.8195 50.1971
rfemur -18.1842 6.99337 13.6887
rtibia 33.8069
rfoot -20.9932 -19.3985
rtoes -2.661
lfemur -6.70502 2.30567 -10.0213
ltibia 10.0856
lfoot -5.61521 18.9637
ltoes 2.26063
1187
root -1.29062 16.6342 -4.46919 7.12223 -70.556 -1.42945
lowerback 5.35641 -1.85265 3.23009
upperback 7.85063 -2.66342 0.576756
thorax 5.03914 -1.2698 -1.18823
lowerneck 7.15479 3.78917 3.31525
upperneck -5.7149 5.00254 -5.69932
head -2.87181 2.62698 -2.68856
rclavicle -4.74598e-014 1.53064e-014
rhumerus 57.4519 54.9288 -48.1482
rradius 78.8846
rwrist 37.1764
rhand -56.1853 15.8546
rfingers 7.12502
rthumb -28.5133 -11.9918
lclavicle -4.74598e-014 1.53064e-014
lhumerus 68.5754 -30.4863 14.921
lradius 72.7666
lwrist 0.583702
lhand 6.52505 22.9331
lfingers 7.12502
lthumb 31.8235 50.1743
rfemur -18.3368 6.96282 13.7041
rtibia 33.6834
rfoot -20.9476 -19.442
rtoes -2.57053
lfemur -6.96429 2.32446 -9.99029
ltibia 10.1097
lfoot -5.57236 18.94
ltoes 2.18652
1188
root -1.29184 16.6402 -4.45997 7.52452 -70.4978 -1.6157
lowerback 5.4744 -1.85015 3.19483
upperback 7.86911 -2.65533 0.525595
thorax 4.99164 -1.26722 -1.21766
lowerneck 7.43465 3.76984 3.24023
upperneck -6.14182 4.96593 -5.62677
head -3.07593 2.61213 -2.67347
rclavicle -1.88845e-015 -8.64713e-015
rhumerus 57.45 54.8879 -48.1493
rradius 78.9464
rwrist 37.1087
rhand -56.1699 16.0061
rfingers 7.12502
rthumb -28.4985 -11.8427
lclavicle -1.88845e-015 -8.64713e-015
lhumerus 68.6244 -30.4019 14.9369
lradius 72.7758
lwrist 0.566863
lhand 6.54646 22.953
lfingers 7.12502
lthumb 31.8439 50.1902
rfemur -18.4935 6.93327 13.7192
rtibia 33.5618
rfoot -20.8999 -19.4852
rtoes -2.49554
lfemur -7.23236 2.33922 -9.95849
ltibia 10.1432
lfoot -5.53828 18.9206
ltoes 2.12458
